<?xml version="1.0" encoding="utf-8"?>
<!-- Generator: Adobe Illustrator 19.0.0, SVG Export Plug-In . SVG Version: 6.00 Build 0)  -->
<svg version="1.1" id="Warstwa_1" xmlns="http://www.w3.org/2000/svg" xmlns:xlink="http://www.w3.org/1999/xlink" x="0px" y="0px"
	 viewBox="0 0 500 500" style="enable-background:new 0 0 500 500;" xml:space="preserve">
<style type="text/css">
	.st0{font-family:'MyriadPro-Regular';}
	.st1{font-size:489.1277px;}
	.st2{fill:#ED1C24;}
	.st3{fill:#FFFFFF;}
	.st4{font-size:485.4593px;}
	.st5{fill:#010101;}
</style>
<g id="XMLID_1_">
	<text id="XMLID_88_" transform="matrix(1 0 0 1 55.0836 340.1351)" class="st0 st1">P</text>
	<g id="XMLID_66_">
		<text id="XMLID_87_" transform="matrix(1 0 0 1 75.0836 360.1351)" class="st2 st0 st1">P</text>
		<text id="XMLID_86_" transform="matrix(1 0 0 1 74.0836 359.1351)" class="st2 st0 st1">P</text>
		<text id="XMLID_85_" transform="matrix(1 0 0 1 73.0836 358.1351)" class="st2 st0 st1">P</text>
		<text id="XMLID_84_" transform="matrix(1 0 0 1 72.0836 357.1351)" class="st2 st0 st1">P</text>
		<text id="XMLID_83_" transform="matrix(1 0 0 1 71.0836 356.1351)" class="st2 st0 st1">P</text>
		<text id="XMLID_82_" transform="matrix(1 0 0 1 70.0836 355.1351)" class="st2 st0 st1">P</text>
		<text id="XMLID_81_" transform="matrix(1 0 0 1 69.0836 354.1351)" class="st2 st0 st1">P</text>
		<text id="XMLID_80_" transform="matrix(1 0 0 1 68.0836 353.1351)" class="st2 st0 st1">P</text>
		<text id="XMLID_79_" transform="matrix(1 0 0 1 67.0836 352.1351)" class="st2 st0 st1">P</text>
		<text id="XMLID_78_" transform="matrix(1 0 0 1 66.0836 351.1351)" class="st2 st0 st1">P</text>
		<text id="XMLID_77_" transform="matrix(1 0 0 1 65.0836 350.1351)" class="st2 st0 st1">P</text>
		<text id="XMLID_76_" transform="matrix(1 0 0 1 64.0836 349.1351)" class="st2 st0 st1">P</text>
		<text id="XMLID_75_" transform="matrix(1 0 0 1 63.0836 348.1351)" class="st2 st0 st1">P</text>
		<text id="XMLID_74_" transform="matrix(1 0 0 1 62.0836 347.1351)" class="st2 st0 st1">P</text>
		<text id="XMLID_73_" transform="matrix(1 0 0 1 61.0836 346.1351)" class="st2 st0 st1">P</text>
		<text id="XMLID_72_" transform="matrix(1 0 0 1 60.0836 345.1351)" class="st2 st0 st1">P</text>
		<text id="XMLID_71_" transform="matrix(1 0 0 1 59.0836 344.1351)" class="st2 st0 st1">P</text>
		<text id="XMLID_70_" transform="matrix(1 0 0 1 58.0836 343.1351)" class="st2 st0 st1">P</text>
		<text id="XMLID_69_" transform="matrix(1 0 0 1 57.0836 342.1351)" class="st2 st0 st1">P</text>
		<text id="XMLID_68_" transform="matrix(1 0 0 1 56.0836 341.1351)" class="st2 st0 st1">P</text>
		<text id="XMLID_67_" transform="matrix(1 0 0 1 55.0836 340.1351)" class="st2 st0 st1">P</text>
	</g>
	<text id="XMLID_41_" transform="matrix(1 0 0 1 55.0836 340.1351)" class="st3 st0 st1">P</text>
</g>
<g id="XMLID_2_">
	<text id="XMLID_65_" transform="matrix(1 0 0 1 217.6681 454.4681)" class="st0 st4">k</text>
	<g id="XMLID_43_">
		<text id="XMLID_64_" transform="matrix(1 0 0 1 237.6681 474.4681)" class="st2 st0 st4">k</text>
		<text id="XMLID_63_" transform="matrix(1 0 0 1 236.6681 473.4681)" class="st2 st0 st4">k</text>
		<text id="XMLID_62_" transform="matrix(1 0 0 1 235.6681 472.4681)" class="st2 st0 st4">k</text>
		<text id="XMLID_61_" transform="matrix(1 0 0 1 234.6681 471.4681)" class="st2 st0 st4">k</text>
		<text id="XMLID_60_" transform="matrix(1 0 0 1 233.6681 470.4681)" class="st2 st0 st4">k</text>
		<text id="XMLID_59_" transform="matrix(1 0 0 1 232.6681 469.4681)" class="st2 st0 st4">k</text>
		<text id="XMLID_58_" transform="matrix(1 0 0 1 231.6681 468.4681)" class="st2 st0 st4">k</text>
		<text id="XMLID_57_" transform="matrix(1 0 0 1 230.6681 467.4681)" class="st2 st0 st4">k</text>
		<text id="XMLID_56_" transform="matrix(1 0 0 1 229.6681 466.4681)" class="st2 st0 st4">k</text>
		<text id="XMLID_55_" transform="matrix(1 0 0 1 228.6681 465.4681)" class="st2 st0 st4">k</text>
		<text id="XMLID_54_" transform="matrix(1 0 0 1 227.6681 464.4681)" class="st2 st0 st4">k</text>
		<text id="XMLID_53_" transform="matrix(1 0 0 1 226.6681 463.4681)" class="st2 st0 st4">k</text>
		<text id="XMLID_52_" transform="matrix(1 0 0 1 225.6681 462.4681)" class="st2 st0 st4">k</text>
		<text id="XMLID_51_" transform="matrix(1 0 0 1 224.6681 461.4681)" class="st2 st0 st4">k</text>
		<text id="XMLID_50_" transform="matrix(1 0 0 1 223.6681 460.4681)" class="st2 st0 st4">k</text>
		<text id="XMLID_49_" transform="matrix(1 0 0 1 222.6681 459.4681)" class="st2 st0 st4">k</text>
		<text id="XMLID_48_" transform="matrix(1 0 0 1 221.6681 458.4681)" class="st2 st0 st4">k</text>
		<text id="XMLID_47_" transform="matrix(1 0 0 1 220.6681 457.4681)" class="st2 st0 st4">k</text>
		<text id="XMLID_46_" transform="matrix(1 0 0 1 219.6681 456.4681)" class="st2 st0 st4">k</text>
		<text id="XMLID_45_" transform="matrix(1 0 0 1 218.6681 455.4681)" class="st2 st0 st4">k</text>
		<text id="XMLID_44_" transform="matrix(1 0 0 1 217.6681 454.4681)" class="st2 st0 st4">k</text>
	</g>
	<text id="XMLID_39_" transform="matrix(1 0 0 1 217.6681 454.4681)" class="st3 st0 st4">k</text>
</g>
<circle id="XMLID_9_" class="st5" cx="130.3" cy="432.6" r="51.2"/>
<circle id="XMLID_8_" class="st3" cx="130.3" cy="432.6" r="40.7"/>
<circle id="XMLID_7_" class="st5" cx="130.3" cy="432.6" r="28.7"/>
<circle id="XMLID_6_" class="st3" cx="130.3" cy="432.6" r="15.7"/>
<rect id="XMLID_5_" x="139.2" y="425.8" class="st3" width="23.5" height="13.1"/>
</svg>
